<svg width="42" height="38" viewBox="0 0 42 38" fill="none" xmlns="http://www.w3.org/2000/svg">
<g clip-path="url(#clip0_2053_449)">
<path d="M17.3959 3.19395L17.3959 3.19397C14.3406 4.95795 13.2938 8.86475 15.0577 11.92L26.9211 32.4679C28.685 35.5232 32.5918 36.57 35.6471 34.8061L35.6472 34.806C38.7025 33.0421 39.7493 29.1353 37.9853 26.08L26.122 5.5321C24.358 2.4768 20.4512 1.42998 17.3959 3.19395Z" fill="url(#paint0_linear_2053_449)"/>
<path d="M23.7834 3.19398L23.7833 3.19396C20.728 1.42999 16.8212 2.47681 15.0573 5.53211L3.19394 26.08C1.42996 29.1353 2.47678 33.0421 5.53208 34.8061L5.53212 34.8061C8.58742 36.5701 12.4942 35.5232 14.2582 32.4679L26.1215 11.9201C27.8855 8.86476 26.8387 4.95796 23.7834 3.19398Z" fill="url(#paint1_linear_2053_449)"/>
</g>
<defs>
<linearGradient id="paint0_linear_2053_449" x1="17.3959" y1="3.19398" x2="35.6471" y2="34.806" gradientUnits="userSpaceOnUse">
<stop stop-color="#263CFF" stop-opacity="0"/>
<stop offset="1" stop-color="#F03D46"/>
</linearGradient>
<linearGradient id="paint1_linear_2053_449" x1="23.7834" y1="3.194" x2="5.53214" y2="34.8061" gradientUnits="userSpaceOnUse">
<stop stop-color="#4154FF"/>
<stop offset="1" stop-color="#E6283E"/>
</linearGradient>
<clipPath id="clip0_2053_449">
<rect width="41.1793" height="38" fill="white"/>
</clipPath>
</defs>
</svg>
